<?xml version="1.0" encoding="UTF-8" standalone="no"?>
<!-- Created with Inkscape (http://www.inkscape.org/) -->

<svg
   xmlns:dc="http://purl.org/dc/elements/1.1/"
   xmlns:cc="http://creativecommons.org/ns#"
   xmlns:rdf="http://www.w3.org/1999/02/22-rdf-syntax-ns#"
   xmlns:svg="http://www.w3.org/2000/svg"
   xmlns="http://www.w3.org/2000/svg"
   xmlns:sodipodi="http://sodipodi.sourceforge.net/DTD/sodipodi-0.dtd"
   xmlns:inkscape="http://www.inkscape.org/namespaces/inkscape"
   width="256"
   height="256"
   id="svg2985"
   version="1.1"
   inkscape:version="0.48.5 r10040"
   sodipodi:docname="bad.svg">
  <defs
     id="defs2987" />
  <sodipodi:namedview
     id="base"
     pagecolor="#ffffff"
     bordercolor="#666666"
     borderopacity="1.0"
     inkscape:pageopacity="0.0"
     inkscape:pageshadow="2"
     inkscape:zoom="2"
     inkscape:cx="64.571874"
     inkscape:cy="105.11726"
     inkscape:current-layer="layer1"
     showgrid="true"
     inkscape:document-units="px"
     inkscape:grid-bbox="true"
     inkscape:window-width="1324"
     inkscape:window-height="746"
     inkscape:window-x="42"
     inkscape:window-y="0"
     inkscape:window-maximized="1" />
  <metadata
     id="metadata2990">
    <rdf:RDF>
      <cc:Work
         rdf:about="">
        <dc:format>image/svg+xml</dc:format>
        <dc:type
           rdf:resource="http://purl.org/dc/dcmitype/StillImage" />
        <dc:title></dc:title>
      </cc:Work>
    </rdf:RDF>
  </metadata>
  <g
     id="layer1"
     inkscape:label="Layer 1"
     inkscape:groupmode="layer"
     transform="translate(0,192)">
    <path
       sodipodi:type="arc"
       style="color:#000000;fill:#a40000;fill-opacity:1;fill-rule:nonzero;stroke:none;stroke-width:80;marker:none;visibility:visible;display:inline;overflow:visible;enable-background:accumulate"
       id="path2993"
       sodipodi:cx="125.5"
       sodipodi:cy="123.5"
       sodipodi:rx="111.5"
       sodipodi:ry="111.5"
       d="m 237,123.5 a 111.5,111.5 0 1 1 -223,0 111.5,111.5 0 1 1 223,0 z"
       transform="translate(0,-192)" />
    <path
       style="color:#000000;fill:#cc0000;fill-opacity:1;fill-rule:nonzero;stroke:none;stroke-width:80;marker:none;visibility:visible;display:inline;overflow:visible;enable-background:accumulate"
       d="M 125.5 12 C 63.92025 12 14 61.92025 14 123.5 C 14 143.70586 19.383494 162.65648 28.78125 179 C 28.817891 179.04809 28.838282 179.10822 28.875 179.15625 C 49.249412 205.80785 81.361918 223 117.5 223 C 179.07975 223 229 173.07975 229 111.5 C 229 91.294145 223.61651 72.343519 214.21875 56 C 214.18844 55.94729 214.15539 55.896406 214.125 55.84375 C 193.75059 29.192146 161.63808 12 125.5 12 z "
       transform="translate(0,-192)"
       id="path2993-6" />
    <path
       style="color:#000000;fill:#ef2929;fill-opacity:1;fill-rule:nonzero;stroke:none;stroke-width:80;marker:none;visibility:visible;display:inline;overflow:visible;enable-background:accumulate"
       d="M 112.90625,-171.84375 C 62.506756,-169.01061 22.5,-126.29147 22.5,-74 c 0,1.7868 0.06399,3.54925 0.15625,5.3125 4.20354,-51.53446 41.601576,-93.40951 90.25,-103.15625 z"
       id="path3034"
       inkscape:connector-curvature="0" />
    <path
       style="color:#000000;fill:#000000;fill-opacity:1;fill-rule:nonzero;stroke:#000000;stroke-width:6;stroke-linecap:round;stroke-linejoin:round;marker:none;visibility:visible;display:inline;overflow:visible;enable-background:accumulate"
       d="m 73.499615,-5.5 c 7.797997,-20.916444 28.133205,-35.84375 52.000395,-35.84375 23.86717,0 44.20239,14.927306 52.00037,35.84375 -12.39799,-14.749328 -31.08459,-24.143129 -52.00037,-24.143129 -20.91582,0 -39.602401,9.393801 -52.000395,24.143129 z"
       id="path3904"
       inkscape:connector-curvature="0" />
    <g
       id="g3995"
       transform="translate(-1.22967,4)">
      <path
         sodipodi:nodetypes="ccc"
         inkscape:connector-curvature="0"
         id="path3925-6"
         d="m 151.22913,-129.75703 c 12.48842,12.48842 21.96723,15.30698 35.47448,15.51406 5.31574,0 10.37986,-1.07731 14.98594,-3.02552"
         style="color:#000000;fill:none;stroke:#a40000;stroke-width:6;stroke-linecap:butt;stroke-linejoin:round;stroke-miterlimit:4;stroke-opacity:1;marker:none;visibility:visible;display:inline;overflow:visible;enable-background:accumulate" />
      <path
         sodipodi:nodetypes="ccc"
         inkscape:connector-curvature="0"
         id="path3925-6-2"
         d="m 102.23021,-129.75703 c -12.48842,12.48842 -21.96723,15.30698 -35.47448,15.51406 -5.31574,0 -10.37986,-1.07731 -14.98594,-3.02552"
         style="color:#000000;fill:none;stroke:#a40000;stroke-width:6;stroke-linecap:butt;stroke-linejoin:round;stroke-miterlimit:4;stroke-opacity:1;marker:none;visibility:visible;display:inline;overflow:visible;enable-background:accumulate" />
    </g>
    <g
       id="g4053"
       transform="matrix(1,0,0,-1,0,-168.5)">
      <path
         id="path3999"
         transform="translate(0,-192)"
         d="M 72.65625,94 C 69.192207,96.842642 67,101.16922 67,106 c 0,8.56041 6.939586,15.5 15.5,15.5 8.560414,0 15.5,-6.93959 15.5,-15.5 0,-4.83078 -2.192207,-9.157358 -5.65625,-12 -2.67443,2.194675 -6.114121,3.5 -9.84375,3.5 -3.729629,0 -7.16932,-1.305325 -9.84375,-3.5 z"
         style="color:#000000;fill:#000000;fill-opacity:1;fill-rule:nonzero;stroke:none;stroke-width:8;marker:none;visibility:visible;display:inline;overflow:visible;enable-background:accumulate"
         inkscape:connector-curvature="0" />
      <path
         id="path3999-9"
         transform="translate(0,-192)"
         d="M 158.65625,94 C 155.19221,96.842642 153,101.16922 153,106 c 0,8.56041 6.93959,15.5 15.5,15.5 8.56041,0 15.5,-6.93959 15.5,-15.5 0,-4.83078 -2.19221,-9.157358 -5.65625,-12 -2.67443,2.194675 -6.11412,3.5 -9.84375,3.5 -3.72963,0 -7.16932,-1.305325 -9.84375,-3.5 z"
         style="color:#000000;fill:#000000;fill-opacity:1;fill-rule:nonzero;stroke:none;stroke-width:8;marker:none;visibility:visible;display:inline;overflow:visible;enable-background:accumulate"
         inkscape:connector-curvature="0" />
    </g>
  </g>
</svg>
